<?xml version="1.0" standalone="no"?>
<!DOCTYPE svg PUBLIC "-//W3C//DTD SVG 20010904//EN"
 "http://www.w3.org/TR/2001/REC-SVG-20010904/DTD/svg10.dtd">
<svg version="1.0" xmlns="http://www.w3.org/2000/svg"
 width="2745.000000pt" height="2745.000000pt" viewBox="0 0 2745.000000 2745.000000"
 preserveAspectRatio="xMidYMid meet">
<metadata>
Created by potrace 1.11, written by Peter Selinger 2001-2013
</metadata>
<g transform="translate(0.000000,2745.000000) scale(0.100000,-0.100000)"
fill="#000000" stroke="none">
<path d="M14970 23603 c-492 -82 -754 -171 -975 -333 -245 -179 -364 -238
-524 -260 -66 -9 -106 -7 -252 11 -210 26 -536 28 -955 6 l-270 -14 -118 -41
c-65 -22 -119 -42 -121 -44 -2 -2 -1 -15 2 -30 7 -34 13 -35 261 -12 416 38
582 -3 765 -189 l87 -89 12 33 c7 19 11 38 10 43 -2 5 -30 56 -63 113 -33 58
-59 107 -56 109 2 2 161 3 354 2 l350 -3 -74 -159 c-40 -88 -72 -163 -71 -166
6 -15 133 21 179 51 28 17 96 84 153 148 57 64 116 127 132 141 272 235 576
395 894 470 52 12 157 30 233 40 137 17 139 18 208 65 38 26 71 50 74 54 6 10
-155 62 -185 60 -14 -1 -36 -4 -50 -6z"/>
<path d="M14223 23070 c-46 -11 -117 -55 -149 -92 -39 -47 -82 -144 -99 -224
-28 -133 -16 -214 40 -263 31 -27 99 -51 110 -39 3 3 50 137 104 299 55 162
103 302 106 312 6 15 1 17 -36 16 -24 -1 -58 -4 -76 -9z"/>
<path d="M14380 22773 l0 -50 103 -14 c56 -7 147 -12 202 -9 55 2 156 4 225 3
150 0 239 -20 533 -119 105 -36 229 -74 274 -84 136 -32 668 -240 813 -318
103 -55 116 -64 305 -222 179 -149 290 -232 405 -303 95 -59 108 -73 324 -362
79 -105 191 -247 251 -315 145 -169 232 -292 309 -441 105 -202 169 -399 202
-622 20 -137 28 -171 74 -318 22 -69 40 -131 40 -138 0 -10 9 -12 32 -7 17 3
33 8 36 10 2 2 -3 85 -12 183 -8 98 -18 221 -21 273 -15 233 -73 470 -152 624
-52 100 -79 139 -233 331 -75 94 -154 193 -176 221 -423 551 -494 635 -599
714 -84 62 -293 209 -417 291 -64 43 -164 114 -222 159 -123 94 -219 157 -296
195 -126 62 -525 175 -1080 306 -163 39 -287 50 -607 56 l-313 6 0 -50z"/>
<path d="M12275 22789 c-361 -32 -451 -50 -705 -136 -682 -230 -1376 -520
-1753 -732 -564 -317 -1004 -714 -1310 -1181 -198 -303 -308 -553 -451 -1021
-36 -118 -74 -242 -84 -277 -11 -34 -17 -64 -13 -66 3 -2 23 -9 44 -16 33 -10
41 -10 58 6 10 9 19 28 19 42 0 13 7 72 16 131 29 199 120 428 279 702 43 74
130 224 193 334 122 214 127 221 211 335 118 161 184 215 631 512 861 571
1231 783 1680 961 375 149 697 226 1085 262 192 18 445 52 454 61 8 7 -55 59
-96 79 -34 16 -108 18 -258 4z"/>
<path d="M12435 21552 c-303 -142 -535 -310 -800 -577 -420 -424 -680 -881
-819 -1440 -51 -208 -61 -287 -60 -510 0 -194 2 -217 27 -307 14 -54 30 -105
36 -115 8 -16 10 -15 15 7 2 14 10 77 16 140 17 166 67 506 96 641 122 580
332 1016 660 1369 122 132 123 132 229 230 95 87 187 166 540 459 184 152 170
140 164 145 -2 2 -49 -17 -104 -42z"/>
<path d="M13319 20923 c-71 -63 -81 -75 -136 -162 -87 -137 -149 -346 -174
-590 -17 -160 -6 -537 20 -711 109 -732 395 -1333 753 -1577 37 -25 70 -44 73
-41 3 3 -18 43 -46 89 -387 621 -566 1052 -641 1534 -28 186 -31 549 -5 730
32 221 108 494 188 679 22 49 39 91 39 93 0 12 -25 -4 -71 -44z"/>
<path d="M16080 20454 c0 -3 17 -27 38 -53 105 -126 219 -332 272 -489 136
-407 112 -830 -84 -1517 -30 -104 -53 -191 -51 -193 6 -6 82 112 129 201 94
177 163 383 208 622 30 158 33 536 6 680 -67 355 -219 604 -438 720 -69 36
-80 40 -80 29z"/>
<path d="M8232 19450 c-177 -203 -318 -417 -438 -665 -314 -650 -359 -1343
-125 -1934 45 -114 84 -190 78 -151 -3 14 -19 79 -36 145 -175 682 -89 1359
264 2080 97 197 177 340 284 508 34 54 60 101 58 104 -3 2 -41 -37 -85 -87z"/>
<path d="M18624 19343 c-7 -59 4 -181 46 -498 31 -236 35 -369 16 -525 -65
-514 -205 -912 -440 -1259 -93 -137 -246 -391 -246 -408 0 -5 11 -19 24 -32
l23 -22 106 111 c148 154 249 303 368 540 250 499 367 1076 344 1689 -7 197
-18 253 -64 356 -32 70 -52 85 -133 100 l-36 7 -8 -59z"/>
<path d="M14348 19023 c-84 -87 -82 -78 -75 -413 11 -465 41 -662 136 -873 51
-113 171 -290 217 -319 6 -4 19 -19 29 -34 l17 -27 -48 7 c-479 69 -912 291
-1383 707 -50 44 -91 75 -91 69 0 -23 62 -132 120 -208 258 -342 784 -631
1288 -707 147 -22 373 -17 400 9 3 4 -10 40 -31 79 -36 71 -99 158 -229 316
-92 112 -152 212 -182 301 -20 62 -26 109 -35 265 -12 202 -58 788 -67 843 -3
17 -8 32 -12 32 -4 0 -28 -21 -54 -47z"/>
<path d="M10013 18997 c-27 -29 -55 -63 -62 -75 -13 -24 -49 -201 -72 -357
-21 -139 -19 -588 4 -735 62 -394 174 -662 426 -1011 13 -18 11 -19 -30 -19
-141 1 -366 54 -506 120 -203 95 -357 238 -511 475 -59 89 -232 381 -232 390
0 9 -132 225 -138 225 -10 0 7 -224 23 -300 32 -152 84 -255 225 -446 134
-180 298 -333 450 -419 170 -97 332 -146 555 -170 125 -13 158 -20 249 -56
l105 -42 -6 -31 c-3 -17 -6 -32 -7 -33 -1 -1 -107 -29 -236 -63 -129 -34 -314
-88 -410 -120 -96 -32 -217 -70 -269 -84 -114 -32 -183 -68 -222 -116 -42 -50
-63 -128 -57 -212 l5 -69 -51 -38 c-70 -51 -69 -51 -89 -37 -16 13 -15 41 13
546 33 595 33 593 21 586 -19 -12 -94 -149 -116 -213 -41 -116 -72 -374 -85
-693 -9 -242 -20 -291 -89 -390 -37 -54 -175 -180 -198 -180 -6 0 -15 12 -21
28 -5 15 -62 143 -127 286 -287 634 -321 776 -360 1486 -9 157 -20 294 -24
305 -7 18 -10 15 -29 -21 -100 -196 -108 -615 -22 -1046 88 -437 275 -856 478
-1070 l70 -73 -53 -64 c-122 -146 -171 -313 -145 -500 36 -267 194 -519 415
-667 135 -89 248 -124 407 -124 91 0 150 -26 189 -86 15 -21 73 -131 131 -244
203 -398 290 -518 607 -844 404 -415 681 -656 1007 -879 246 -167 484 -299
724 -398 91 -37 121 -55 145 -84 l30 -37 -3 -137 c-1 -75 -9 -284 -18 -464 -9
-181 -13 -331 -9 -335 11 -11 90 85 134 163 80 139 120 360 107 588 -4 64 -4
117 -1 117 4 0 57 -16 118 -35 133 -41 296 -78 427 -97 124 -17 513 -17 650 0
234 30 501 91 771 178 78 25 143 44 145 42 2 -3 -1 -31 -6 -64 -15 -90 -12
-330 5 -430 34 -198 109 -360 212 -460 46 -45 120 -90 130 -80 6 6 -42 193
-110 426 -49 167 -77 313 -77 395 0 70 34 197 69 259 46 84 128 144 529 390
95 58 207 131 250 162 75 55 106 79 317 247 116 93 304 278 362 357 110 151
467 804 703 1285 40 83 148 304 240 491 92 188 186 368 208 400 75 110 140
155 286 199 261 78 457 246 584 500 99 200 147 466 123 694 -20 185 -58 300
-115 339 -42 29 -118 30 -145 3 -19 -19 -19 -21 -1 -91 32 -123 43 -240 37
-387 -7 -193 -44 -324 -137 -487 -96 -167 -156 -219 -230 -197 -113 34 -196
138 -188 237 6 72 49 154 121 229 l62 64 -28 35 c-16 20 -33 58 -39 89 -10 49
-9 70 15 184 40 189 36 244 -20 326 -32 46 -52 47 -92 2 -34 -40 -46 -76 -60
-192 -12 -94 -28 -139 -62 -170 -26 -23 -87 -43 -132 -43 l-28 0 8 53 c23 153
-9 259 -100 327 -48 37 -314 147 -423 175 -112 29 -451 76 -769 106 -181 17
-817 23 -1040 10 -341 -20 -682 -56 -815 -87 -36 -8 -106 -34 -156 -59 -113
-55 -200 -141 -250 -250 -18 -39 -43 -83 -55 -99 -41 -53 -63 -56 -363 -56
l-274 0 -31 67 c-50 105 -118 183 -224 253 -96 64 -98 64 -742 64 -629 0 -668
-2 -1125 -64 -123 -16 -232 -30 -241 -30 -28 0 -417 762 -516 1010 -107 268
-137 413 -136 675 1 179 15 319 64 629 16 104 28 190 26 192 -2 2 -26 -20 -54
-49z m5842 -2623 c387 -41 709 -141 799 -246 59 -68 62 -94 37 -265 -48 -320
-155 -895 -182 -980 -12 -38 -87 -109 -137 -130 -20 -8 -79 -21 -132 -28 -126
-18 -620 -79 -840 -104 -96 -11 -255 -30 -353 -41 -153 -18 -181 -19 -190 -7
-9 10 -85 20 -282 36 -148 13 -284 25 -301 28 l-31 5 -63 232 c-151 555 -154
680 -29 1181 31 124 52 166 110 223 47 46 80 58 184 65 50 4 178 14 285 22
444 37 839 40 1125 9z m-3990 -154 c202 -14 469 -47 552 -68 l68 -17 3 -80 c4
-98 -14 -394 -33 -532 -30 -218 -76 -400 -147 -586 -47 -123 -90 -186 -151
-221 -63 -36 -481 -130 -757 -170 -295 -43 -402 -50 -755 -50 -192 -1 -371 3
-396 7 -25 4 -65 20 -88 35 -58 37 -75 76 -235 526 -25 71 -46 129 -46 131 0
1 32 -9 71 -22 132 -43 195 -27 378 96 l91 61 67 -72 c38 -40 93 -99 123 -132
169 -182 278 -256 437 -297 258 -66 553 38 714 251 66 88 135 247 184 423 23
83 64 125 135 136 59 9 103 46 116 97 18 70 -49 103 -286 144 -427 73 -871 32
-1339 -126 -228 -77 -282 -109 -520 -314 -111 -95 -156 -128 -161 -119 -10 18
-46 179 -65 289 -59 335 39 447 459 525 471 87 1090 120 1581 85z m5471 -322
c-3 -13 -22 -92 -42 -176 l-36 -153 -36 -14 c-19 -9 -36 -14 -37 -13 -4 4 -41
90 -47 108 -9 24 30 192 51 220 25 35 58 50 110 50 40 0 43 -2 37 -22z m-7986
-297 c39 -115 44 -145 25 -180 -17 -33 -83 -83 -98 -74 -18 11 -77 148 -77
178 0 16 8 42 18 56 24 36 94 110 100 105 2 -3 16 -41 32 -85z m4161 -30 c3
-3 16 -53 28 -111 33 -155 97 -406 127 -502 41 -128 222 -598 249 -644 26 -45
81 -86 135 -102 19 -6 132 -13 250 -16 118 -3 289 -11 380 -17 229 -16 633
-16 750 0 52 7 149 24 216 37 127 25 262 43 514 69 193 20 236 29 327 71 142
64 268 187 336 327 19 40 51 133 72 206 38 139 107 346 131 393 8 15 40 47 73
72 l59 46 28 -22 c16 -12 30 -22 31 -23 2 -1 -4 -26 -12 -56 -8 -30 -33 -128
-55 -219 -44 -177 -60 -218 -280 -710 -347 -779 -602 -1280 -765 -1511 -74
-103 -312 -344 -500 -504 -77 -66 -162 -141 -190 -167 -142 -133 -362 -294
-555 -408 -398 -234 -800 -371 -1370 -466 -176 -30 -253 -29 -455 6 -728 125
-1503 522 -2190 1124 -265 231 -646 634 -847 896 -187 243 -299 482 -363 772
-14 62 -37 151 -51 198 -31 101 -182 498 -225 590 l-30 65 16 78 c9 44 21 90
26 105 l10 25 45 -44 c63 -61 150 -249 270 -586 59 -165 86 -217 155 -289 33
-33 56 -63 53 -66 -3 -3 1 -6 8 -5 7 1 47 -15 88 -36 96 -47 196 -72 362 -92
314 -36 591 -11 1213 111 182 36 416 78 520 95 217 34 290 55 372 108 154 100
229 247 272 536 38 252 64 341 130 441 56 87 106 131 196 174 76 37 153 56
255 63 57 4 183 -4 191 -12z m-1997 -140 l46 -78 -50 -87 c-28 -47 -52 -86
-54 -86 -1 0 -41 42 -89 94 l-87 94 87 75 c48 42 91 73 94 71 4 -2 28 -39 53
-83z m-2476 10 c24 -47 32 -76 32 -113 0 -62 -20 -97 -92 -159 -41 -35 -64
-68 -97 -134 l-44 -88 24 -18 c13 -10 28 -19 32 -19 5 0 60 28 124 61 92 49
117 59 124 48 5 -8 9 -17 9 -21 0 -4 47 -137 104 -295 120 -332 169 -490 169
-546 0 -93 -112 -108 -255 -36 -148 74 -272 180 -358 305 -98 142 -141 270
-141 422 0 179 51 289 281 615 19 26 39 46 45 44 5 -2 25 -32 43 -66z m1990
-144 c54 -41 112 -113 112 -140 0 -14 -115 -180 -129 -185 -8 -3 -132 183
-164 244 -20 39 -9 58 59 103 51 34 47 34 122 -22z m6595 -9 c26 -1 49 -4 51
-7 2 -3 -71 -59 -161 -124 -91 -64 -163 -112 -161 -105 3 7 18 66 33 132 l28
118 81 -6 c45 -4 103 -7 129 -8z"/>
<path d="M15317 16115 c-293 -37 -560 -124 -733 -238 -123 -82 -140 -106 -170
-235 -8 -37 -17 -75 -20 -84 -5 -17 6 -18 138 -18 l143 0 34 -63 c155 -281
375 -416 683 -417 143 0 245 21 345 70 172 85 291 250 398 555 16 44 31 83 34
87 4 4 33 -11 66 -34 33 -22 78 -49 100 -58 42 -19 212 -56 220 -48 9 8 -34
191 -50 215 -59 89 -326 206 -580 254 -143 27 -452 34 -608 14z m-46 -466 c59
-52 59 -52 59 -107 0 -52 -3 -58 -57 -121 -31 -36 -59 -68 -61 -71 -2 -3 -15
9 -29 25 -14 17 -50 55 -79 87 -30 31 -54 59 -54 63 0 7 152 175 158 175 2 0
30 -23 63 -51z m561 -26 c40 -36 12 -113 -42 -113 -22 0 -30 8 -44 39 -22 48
-18 73 14 82 40 11 52 10 72 -8z"/>
<path d="M13255 14036 c-63 -15 -165 -62 -165 -75 0 -14 104 -74 184 -106 197
-77 444 -71 520 13 18 21 18 21 -10 46 -48 42 -184 104 -266 120 -90 19 -193
19 -263 2z"/>
<path d="M15755 14005 c-16 -8 -39 -26 -50 -39 -11 -14 -39 -29 -61 -35 -28
-7 -55 -26 -82 -55 -43 -47 -67 -85 -58 -93 14 -14 55 -3 79 21 37 37 63 33
105 -14 50 -58 71 -52 97 27 37 113 64 118 165 28 51 -46 67 -56 93 -53 26 3
32 9 45 46 20 62 39 68 132 42 51 -15 88 -21 111 -16 64 12 65 19 9 72 -100
94 -139 103 -227 54 -29 -16 -59 -30 -67 -30 -8 0 -37 12 -65 27 -65 33 -180
43 -226 18z"/>
<path d="M10353 13794 c-10 -14 -29 -40 -44 -57 -37 -47 -97 -141 -109 -172
-11 -30 -13 -87 -4 -134 6 -27 10 -31 40 -31 56 0 130 35 206 96 67 54 72 56
84 38 47 -70 80 -113 97 -123 27 -17 96 25 179 111 l68 69 30 -35 c34 -38 139
-96 175 -96 26 0 43 32 52 96 6 43 5 44 -53 99 -73 69 -150 109 -189 99 -15
-4 -60 -37 -99 -74 -68 -64 -104 -90 -124 -90 -5 0 -37 25 -71 55 -35 31 -71
55 -84 55 -12 0 -42 -20 -70 -47 -33 -32 -47 -41 -43 -28 3 11 14 59 25 108
l19 87 -34 0 c-24 0 -38 -7 -51 -26z"/>
<path d="M13680 12920 c-41 -5 -113 -18 -160 -29 -111 -27 -172 -26 -327 5
-109 22 -148 25 -269 22 -131 -3 -143 -5 -177 -28 -20 -14 -39 -31 -42 -38 -6
-17 61 -59 139 -88 108 -39 213 -49 394 -35 118 8 191 8 288 0 209 -18 324 -3
464 62 l72 33 -6 45 c-3 25 -12 48 -19 53 -15 10 -255 8 -357 -2z"/>
<path d="M13040 12510 c0 -18 70 -88 121 -120 136 -88 343 -94 488 -14 54 29
137 97 151 125 10 19 2 19 -375 19 -249 0 -385 -4 -385 -10z"/>
<path d="M11710 18293 c-79 -120 -159 -243 -179 -273 -68 -105 -204 -295 -265
-370 -93 -115 -305 -323 -322 -316 -8 3 -12 1 -9 -4 7 -11 -74 -73 -189 -144
-42 -26 -75 -50 -72 -53 10 -10 136 30 213 69 225 113 545 419 741 710 116
173 203 358 227 483 17 88 19 115 7 115 -5 0 -73 -98 -152 -217z"/>
<path d="M18320 18314 c-71 -222 -224 -576 -316 -734 -95 -162 -262 -347 -399
-438 -146 -98 -315 -167 -493 -200 l-93 -17 6 -35 c4 -19 11 -38 17 -41 24
-15 200 -41 234 -34 69 13 218 67 309 112 243 122 384 268 518 538 150 301
247 623 247 813 0 67 -15 84 -30 36z"/>
<path d="M15690 18284 c0 -67 34 -297 60 -399 52 -207 133 -360 258 -487 73
-75 71 -78 -34 -53 -155 36 -310 103 -442 188 -150 99 -275 212 -498 452 -86
94 -160 171 -164 173 -13 5 -35 -83 -34 -134 2 -88 22 -115 227 -323 177 -179
279 -252 506 -365 243 -120 395 -162 811 -226 169 -25 208 -34 227 -52 30 -28
29 -32 -9 -45 -157 -54 -188 -66 -188 -72 0 -4 13 -17 29 -29 l30 -22 81 35
c379 162 649 476 689 801 10 83 4 187 -10 182 -5 -2 -93 -140 -197 -308 -255
-413 -239 -390 -263 -390 -85 0 -310 72 -414 132 -245 144 -382 330 -586 801
-38 89 -72 163 -74 166 -3 2 -5 -9 -5 -25z"/>
<path d="M12685 18119 c-77 -87 -229 -232 -345 -329 -421 -353 -922 -602
-1483 -736 -84 -20 -159 -39 -167 -42 -10 -3 1 -12 30 -25 127 -58 401 -21
700 95 602 234 1166 667 1311 1009 48 112 35 120 -46 28z"/>
<path d="M11824 10559 c-28 -5 -118 -32 -200 -60 -521 -180 -549 -186 -649
-149 -247 91 -276 96 -353 59 -54 -26 -139 -104 -218 -200 -113 -136 -299
-268 -404 -285 -344 -54 -568 -150 -1040 -442 -102 -63 -226 -139 -277 -169
-66 -39 -95 -62 -106 -86 -20 -43 -51 -156 -45 -163 3 -2 32 11 64 29 33 19
156 90 274 159 410 238 516 293 717 374 125 50 298 104 334 104 9 0 24 -11 33
-26 20 -30 24 -22 -126 -259 -98 -156 -448 -711 -550 -873 -32 -51 -58 -95
-58 -97 0 -2 21 -20 47 -40 l46 -35 25 22 c13 13 70 75 127 139 56 64 125 140
152 170 196 212 225 249 212 267 -7 9 -14 19 -16 21 -1 2 -34 -13 -72 -33
-116 -61 -110 -40 66 209 186 265 337 482 412 590 30 44 59 83 65 87 11 8 38
-33 134 -209 l72 -131 -35 -49 c-19 -26 -72 -97 -116 -158 -45 -60 -181 -247
-303 -414 -121 -167 -256 -351 -299 -410 -246 -337 -350 -482 -346 -485 32
-23 69 -46 77 -46 6 0 19 15 30 33 49 80 257 379 381 547 752 1018 750 1015
751 1133 0 56 -2 60 -45 103 -46 47 -72 108 -60 144 13 40 -12 17 -75 -70 -36
-49 -68 -89 -72 -90 -7 0 -55 80 -60 100 -2 9 32 28 97 54 109 45 119 55 205
207 28 50 44 66 77 81 54 24 90 18 208 -35 82 -37 97 -41 170 -40 62 0 100 7
170 31 86 29 721 306 738 322 5 4 2 24 -7 44 -14 34 -18 36 -58 35 -24 -1 -66
-5 -94 -10z m-1825 -803 c-2 -2 -15 -9 -29 -15 -24 -11 -24 -11 -6 3 16 13 49
24 35 12z"/>
<path d="M15091 10433 l-65 -27 45 -38 c80 -71 135 -88 369 -118 137 -18 126
-11 134 -82 8 -80 23 -133 42 -153 23 -22 85 -18 161 11 161 62 296 104 332
104 59 0 90 -36 136 -155 54 -142 109 -245 158 -296 27 -29 158 -115 372 -245
182 -111 391 -239 465 -284 74 -46 196 -120 270 -165 74 -45 185 -112 245
-150 61 -37 147 -90 193 -117 48 -28 82 -55 82 -65 0 -8 -14 -210 -30 -447
-29 -405 -63 -830 -145 -1801 -43 -515 -54 -695 -45 -743 3 -20 21 -79 40
-130 24 -69 37 -92 47 -87 8 3 25 8 38 11 20 5 25 14 30 57 8 74 215 2927 215
2965 0 56 16 34 29 -40 6 -40 32 -206 57 -368 53 -351 86 -539 204 -1170 219
-1168 255 -1453 460 -3660 104 -1117 102 -1097 141 -1242 9 -35 13 -38 44 -38
19 0 35 2 35 4 0 2 7 40 15 83 24 127 19 440 -20 1095 -51 856 -77 1145 -151
1658 -64 449 -243 1469 -455 2605 -159 853 -177 938 -215 1037 -34 87 -36 96
-25 141 24 105 8 171 -55 227 -19 16 -121 81 -227 144 -188 111 -267 157
-1057 617 -212 123 -404 241 -427 263 -45 40 -52 57 -73 176 -24 131 -92 234
-190 284 -78 41 -120 48 -350 56 -210 8 -239 11 -441 53 -297 62 -309 63 -388
30z"/>
<path d="M11660 10171 c0 -101 2 -105 136 -268 89 -108 189 -243 411 -553 409
-573 632 -855 868 -1099 106 -110 302 -286 401 -360 32 -25 63 -48 68 -53 8
-6 -56 -84 -176 -213 -20 -21 -34 -43 -31 -48 10 -16 136 -1 193 23 105 45
200 137 310 300 24 36 104 149 177 253 424 598 656 987 831 1392 96 222 120
297 148 465 13 80 24 146 24 147 0 7 -96 31 -101 26 -4 -5 -67 -150 -139 -323
-231 -551 -312 -719 -465 -975 -75 -124 -256 -397 -378 -570 -31 -44 -100
-144 -153 -222 -53 -79 -101 -143 -105 -143 -7 0 -125 91 -319 248 -130 105
-200 176 -309 312 -144 181 -766 1010 -890 1185 -23 33 -68 94 -99 136 -31 42
-106 144 -167 225 -60 82 -116 154 -125 159 -8 6 -36 18 -62 27 l-48 17 0 -88z"/>
<path d="M10973 9843 c-28 -60 -55 -121 -62 -138 -24 -65 -130 -483 -170 -675
-63 -305 -217 -1345 -315 -2135 -14 -110 -41 -321 -61 -468 -19 -148 -44 -357
-55 -465 -11 -108 -25 -216 -30 -239 -19 -81 -32 -188 -32 -273 0 -77 -1 -81
-9 -37 -4 27 -9 50 -11 52 -2 2 -42 -39 -88 -91 -47 -52 -97 -109 -112 -125
-15 -17 -31 -28 -36 -25 -15 9 -32 90 -32 149 0 82 23 145 132 357 81 159 101
205 104 250 l5 55 -81 93 c-45 50 -88 92 -96 92 -10 0 -68 -108 -166 -307
l-150 -307 36 -33 c32 -30 76 -44 76 -25 0 8 62 52 73 52 14 0 6 -26 -60 -209
-145 -407 -156 -498 -61 -535 21 -9 47 -16 58 -16 11 0 20 -2 20 -5 0 -5 -88
-257 -176 -504 -24 -68 -44 -132 -44 -142 0 -11 14 -28 33 -39 32 -20 67 -26
67 -12 0 4 13 21 28 37 57 62 102 123 102 137 0 9 -7 22 -17 29 -24 20 -43 73
-43 119 0 42 33 120 75 175 12 17 51 87 85 155 34 69 112 208 173 310 61 102
114 201 118 220 16 78 9 -59 -16 -311 -44 -449 -46 -456 -113 -619 -64 -158
-225 -632 -243 -719 -24 -114 18 -161 141 -161 l60 0 -6 -27 c-4 -16 -10 -38
-15 -50 -4 -11 -13 -49 -19 -83 -17 -91 0 -152 48 -182 41 -25 120 -58 139
-58 14 0 26 41 47 155 l14 80 -6 -136 c-6 -162 0 -209 29 -209 11 0 30 11 43
25 l23 25 -5 -50 -4 -49 46 -23 c25 -12 46 -25 46 -29 0 -4 -21 -15 -46 -25
-52 -20 -114 -73 -114 -97 0 -11 13 -17 43 -21 200 -27 247 -32 247 -26 0 4
-22 22 -48 41 l-48 33 33 29 c29 25 33 35 33 76 0 56 -12 71 -60 71 -60 0 -64
8 -55 97 13 137 12 177 -7 181 -11 2 -24 -13 -41 -52 -14 -31 -29 -56 -32 -56
-13 0 -25 58 -36 168 -14 158 -21 187 -43 187 -12 0 -31 -26 -59 -79 -73 -138
-77 -124 -52 179 19 232 19 254 0 261 -9 4 -33 -9 -59 -30 -25 -20 -48 -36
-51 -36 -15 0 15 161 81 440 14 58 28 143 31 190 3 47 8 90 12 97 3 7 46 -122
95 -285 90 -304 130 -436 326 -1092 62 -206 123 -419 136 -473 12 -55 24 -101
27 -103 3 -4 108 24 115 31 2 2 -49 263 -112 581 -178 894 -243 1268 -273
1569 -40 396 -36 612 27 1560 16 242 37 550 45 685 35 548 92 959 206 1475 35
160 66 283 209 835 44 172 123 591 114 613 -5 15 -34 27 -65 27 -10 0 -33 -36
-66 -107z"/>
<path d="M15965 9791 l-30 -6 -3 -111 c-3 -116 -1 -131 117 -924 141 -945 178
-1397 168 -2080 -9 -621 -53 -1093 -167 -1779 -115 -691 -211 -1077 -465
-1861 -201 -622 -230 -713 -250 -809 -8 -40 -15 -74 -15 -75 0 -10 62 -28 69
-20 5 5 48 70 96 144 l88 135 244 810 c134 446 262 870 283 944 29 95 50 202
75 376 19 134 64 422 99 641 79 487 92 577 110 769 51 512 46 1086 -14 1912
-32 430 -62 642 -189 1328 -40 216 -62 305 -108 443 -31 94 -62 171 -68 171
-5 -1 -23 -4 -40 -8z"/>
<path d="M16610 9335 c0 -12 36 -61 59 -80 28 -23 222 -170 527 -400 189 -142
258 -191 450 -312 33 -22 57 -30 72 -26 20 5 22 12 21 67 l0 61 -167 110 c-92
60 -326 216 -521 347 -327 220 -357 238 -397 238 -24 0 -44 -2 -44 -5z"/>
<path d="M10595 9267 c-40 -45 -87 -141 -101 -205 -17 -77 -41 -121 -223 -406
-194 -305 -504 -803 -520 -835 -29 -56 -65 -191 -55 -200 16 -16 74 -24 74
-11 0 24 140 298 222 435 46 77 150 239 229 360 229 347 316 487 400 650 44
84 79 157 79 163 0 12 -69 62 -85 62 -5 -1 -15 -6 -20 -13z"/>
<path d="M16535 9020 l-29 -30 31 -37 c42 -53 573 -751 601 -790 12 -17 22
-33 22 -36 0 -3 -22 -8 -50 -12 -27 -4 -50 -11 -50 -16 0 -5 22 -39 48 -76 61
-87 103 -147 296 -425 86 -126 160 -228 163 -228 3 0 20 9 38 20 l32 20 -104
242 c-203 474 -265 606 -364 774 -91 155 -200 274 -444 486 -60 53 -119 105
-129 117 -25 27 -27 27 -61 -9z"/>
<path d="M8616 8928 c-242 -531 -401 -982 -586 -1663 -48 -177 -200 -782 -200
-795 0 -4 16 -11 35 -17 19 -6 35 -10 35 -9 0 2 150 446 527 1556 216 636 323
953 323 956 0 3 -92 34 -99 34 -4 0 -19 -28 -35 -62z"/>
<path d="M16607 8684 c-22 -12 -27 -20 -21 -37 15 -52 96 -243 226 -537 311
-700 538 -1229 611 -1420 44 -115 66 -204 118 -460 34 -171 42 -198 64 -217
33 -29 34 -29 68 2 33 31 33 50 8 195 -19 110 -74 259 -276 745 -48 116 -147
354 -220 530 -73 176 -149 360 -169 409 -20 48 -51 116 -68 149 -29 58 -30 64
-19 110 31 137 3 204 -179 412 -38 44 -74 92 -81 108 -13 31 -22 32 -62 11z"/>
<path d="M8976 8598 c-38 -87 -75 -209 -85 -278 -13 -94 35 -1067 80 -1625 55
-682 158 -1407 320 -2250 108 -559 249 -944 610 -1661 250 -496 298 -583 331
-600 16 -8 32 -13 34 -11 6 6 -28 158 -63 282 -39 139 -82 241 -197 477 -301
616 -501 1245 -646 2033 -17 94 -35 192 -40 218 -27 133 1 215 91 273 21 13
39 34 43 49 17 65 141 388 181 468 42 83 43 88 24 98 -11 5 -23 8 -27 5 -5 -3
-84 -120 -178 -260 l-169 -255 -27 142 c-178 917 -269 1864 -256 2665 3 155 3
282 1 282 -2 0 -14 -24 -27 -52z"/>
<path d="M10378 8268 c-211 -244 -383 -550 -633 -1123 -48 -110 -113 -253
-144 -317 -41 -87 -52 -118 -41 -118 20 1 45 23 104 93 28 32 69 72 92 88 l42
29 -75 -168 c-41 -92 -94 -211 -118 -264 l-44 -98 45 -26 c45 -26 45 -26 59
-7 8 11 30 39 50 63 46 55 66 96 210 420 65 146 144 318 176 382 56 111 58
118 40 128 -18 9 -36 -12 -170 -191 -83 -110 -151 -198 -151 -195 0 26 74 317
95 371 30 80 151 315 285 555 200 356 241 432 237 436 -2 3 -29 -23 -59 -58z"/>
<path d="M16678 7147 c-16 -6 -28 -14 -28 -19 0 -7 34 -86 172 -403 67 -153
91 -204 242 -499 122 -241 156 -367 156 -580 0 -159 13 -199 85 -271 42 -42
132 -95 163 -95 15 0 15 2 2 32 -5 13 -91 273 -191 578 -100 305 -184 561
-187 569 -6 16 19 1 119 -71 37 -27 73 -48 80 -48 10 0 10 3 3 8 -11 7 -334
459 -334 467 0 2 -22 33 -49 68 -26 35 -81 112 -121 171 -41 58 -76 106 -79
105 -3 -1 -18 -6 -33 -12z"/>
<path d="M16580 6730 c0 -48 88 -312 248 -745 60 -164 74 -196 206 -488 135
-300 176 -450 182 -665 4 -134 9 -157 51 -210 18 -22 19 -22 61 -6 23 10 42
21 42 27 0 12 -117 448 -174 648 -163 571 -315 948 -531 1319 -72 124 -85 142
-85 120z"/>
<path d="M7821 6221 c-177 -223 -389 -1018 -520 -1951 -85 -602 -125 -1207
-103 -1563 16 -250 59 -455 101 -481 8 -5 11 94 11 341 0 1093 152 2180 481
3427 37 143 67 262 65 264 -2 1 -18 -15 -35 -37z"/>
<path d="M12650 6233 c-71 -25 -177 -71 -290 -126 -174 -83 -240 -107 -314
-113 -52 -5 -68 -2 -106 18 -40 22 -84 68 -115 122 -6 11 -35 23 -75 31 -102
22 -96 26 -104 -65 -4 -50 -3 -88 4 -100 10 -19 135 -97 212 -133 59 -28 133
-38 186 -27 128 28 269 88 461 195 134 75 202 94 268 76 52 -14 103 -65 145
-144 63 -117 156 -186 279 -207 37 -6 253 -10 516 -10 l451 0 12 35 c6 19 15
35 18 35 4 0 27 -19 52 -41 124 -109 248 -205 256 -196 10 9 34 112 34 144 0
30 -6 35 -102 88 -57 31 -137 68 -178 83 l-75 26 -485 0 -485 1 -59 29 c-34
17 -91 60 -140 106 -157 151 -205 180 -293 179 -32 0 -65 -3 -73 -6z"/>
<path d="M16744 5426 c-9 -37 -1 -80 81 -451 109 -491 165 -760 165 -798 0
-19 -11 -63 -24 -98 -18 -48 -29 -65 -45 -67 -12 -2 -21 -7 -21 -11 0 -4 18
-50 39 -102 36 -85 42 -94 68 -97 58 -5 58 -7 58 280 -1 302 -14 405 -90 703
-49 190 -198 642 -220 663 -2 2 -7 -7 -11 -22z"/>
<path d="M17842 5273 c-21 -27 -46 -59 -54 -73 -21 -32 -49 -283 -103 -915
-38 -442 -73 -680 -146 -1005 -91 -400 -245 -873 -375 -1148 -61 -129 -68
-159 -41 -176 16 -9 27 -2 82 58 35 38 75 92 89 120 13 28 59 123 101 211 132
273 185 418 268 730 160 598 263 1296 284 1917 l6 198 -28 65 c-15 36 -31 65
-35 65 -5 0 -26 -21 -48 -47z"/>
<path d="M13996 4846 l-18 -34 40 -68 c47 -81 103 -141 137 -150 43 -11 91 5
149 48 31 23 56 45 56 49 0 7 -311 180 -335 187 -6 1 -18 -13 -29 -32z"/>
<path d="M13550 4730 c-144 -74 -311 -84 -570 -36 -212 40 -394 45 -625 16
-99 -12 -182 -23 -184 -25 -2 -2 0 -20 3 -39 5 -26 13 -37 37 -45 16 -5 238
-20 493 -32 431 -20 469 -21 556 -6 116 19 232 74 310 146 63 57 58 62 -20 21z"/>
<path d="M16491 4662 c-32 -3 -33 -5 -28 -35 3 -18 37 -187 76 -377 74 -365
108 -498 168 -660 l37 -101 31 7 c69 15 76 -32 -89 591 -83 314 -153 573 -156
575 -3 2 -20 2 -39 0z"/>
<path d="M11720 3810 c0 -27 0 -53 -1 -57 0 -5 129 -26 288 -47 l288 -39 665
-1 c593 -1 676 -3 765 -19 130 -23 246 -53 315 -80 49 -19 72 -21 200 -20 80
2 168 6 195 11 l50 8 -150 36 c-476 116 -831 156 -1810 208 -209 11 -464 27
-567 35 -262 21 -238 25 -238 -35z"/>
<path d="M16228 3723 c-8 -10 -18 -23 -22 -30 -3 -6 17 -163 44 -349 51 -335
51 -338 32 -363 -30 -40 -60 -51 -152 -51 -65 0 -90 -4 -106 -18 -27 -21 -44
-54 -44 -82 0 -49 240 -426 385 -604 19 -23 150 -106 153 -97 2 5 -51 140
-117 300 -80 192 -119 296 -114 308 14 38 34 44 125 37 84 -6 88 -5 112 20 14
14 26 35 26 47 0 11 -25 66 -56 121 -58 101 -166 396 -180 489 l-6 44 73 -72
c149 -145 202 -193 215 -193 7 0 38 -20 68 -45 38 -31 65 -45 85 -45 26 0 33
7 60 61 l30 61 -32 26 c-18 15 -97 87 -177 162 -299 278 -361 320 -402 273z"/>
</g>
</svg>
